<svg xmlns="http://www.w3.org/2000/svg" xmlns:xlink="http://www.w3.org/1999/xlink" xmlns:lucid="lucid" width="1144.14" height="1828"><g transform="translate(-77.525 -21.199999999999918)" lucid:page-tab-id="0_0"><path d="M0 0h1323.2v1870.4H0z" fill="#fff"/><path d="M259 41.2h288v153c-48.1-25.55-78.05-25.55-96.2-25.55-28.8 0-67.1 25.55-95.9 25.55-17.85 0-48.1 0-95.9-25.55z" stroke="#000" stroke-width="2" fill="#fff"/><path d="M275 54.7h288v153c-48.1-25.55-78.05-25.55-96.2-25.55-28.8 0-67.1 25.55-95.9 25.55-17.85 0-48.1 0-95.9-25.55z" stroke="#000" stroke-width="2" fill="#fff"/><path d="M291 68.2h288v153c-48.1-25.55-78.05-25.55-96.2-25.55-28.8 0-67.1 25.55-95.9 25.55-17.85 0-48.1 0-95.9-25.55z" stroke="#000" stroke-width="2" fill="#fff"/><use xlink:href="#a" transform="matrix(1,0,0,1,296.00000000000006,73.19999999999992) translate(19.14999999999999 62.6)"/><use xlink:href="#b" transform="matrix(1,0,0,1,296.00000000000006,73.19999999999992) translate(89.05 62.6)"/><use xlink:href="#c" transform="matrix(1,0,0,1,296.00000000000006,73.19999999999992) translate(129 62.6)"/><use xlink:href="#d" transform="matrix(1,0,0,1,296.00000000000006,73.19999999999992) translate(200.95 62.6)"/><path d="M419 268.53l140 110-140 110-140-110z" stroke="#000" stroke-width="2" fill="#fff"/><use xlink:href="#e" transform="matrix(1,0,0,1,284.00000000000006,273.53333333333325) translate(59.07499999999999 98.30000000000001)"/><use xlink:href="#f" transform="matrix(1,0,0,1,284.00000000000006,273.53333333333325) translate(78.07499999999999 98.30000000000001)"/><use xlink:href="#g" transform="matrix(1,0,0,1,284.00000000000006,273.53333333333325) translate(133.02499999999998 98.30000000000001)"/><use xlink:href="#h" transform="matrix(1,0,0,1,284.00000000000006,273.53333333333325) translate(56.125 119.9)"/><use xlink:href="#i" transform="matrix(1,0,0,1,284.00000000000006,273.53333333333325) translate(61.125 119.9)"/><use xlink:href="#j" transform="matrix(1,0,0,1,284.00000000000006,273.53333333333325) translate(141.925 119.9)"/><use xlink:href="#k" transform="matrix(1,0,0,1,284.00000000000006,273.53333333333325) translate(167.925 119.9)"/><path d="M863.67 389.87l120 90-120 90-120-90z" stroke="#000" stroke-width="2" fill="#fff"/><use xlink:href="#l" transform="matrix(1,0,0,1,748.6666666666666,394.8666666666666) translate(39.599999999999994 67)"/><use xlink:href="#m" transform="matrix(1,0,0,1,748.6666666666666,394.8666666666666) translate(94.55 67)"/><use xlink:href="#n" transform="matrix(1,0,0,1,748.6666666666666,394.8666666666666) translate(112.5 67)"/><use xlink:href="#o" transform="matrix(1,0,0,1,748.6666666666666,394.8666666666666) translate(11.575000000000003 88.60000000000001)"/><use xlink:href="#m" transform="matrix(1,0,0,1,748.6666666666666,394.8666666666666) translate(46.575 88.60000000000001)"/><use xlink:href="#p" transform="matrix(1,0,0,1,748.6666666666666,394.8666666666666) translate(64.525 88.60000000000001)"/><use xlink:href="#q" transform="matrix(1,0,0,1,748.6666666666666,394.8666666666666) translate(138.525 88.60000000000001)"/><use xlink:href="#r" transform="matrix(1,0,0,1,748.6666666666666,394.8666666666666) translate(158.52499999999998 88.60000000000001)"/><use xlink:href="#s" transform="matrix(1,0,0,1,748.6666666666666,394.8666666666666) translate(101.525 110.20000000000002)"/><path d="M783.67 49.2h160v120h-160z" stroke="#000" stroke-width="2" fill="#fff"/><use xlink:href="#t" transform="matrix(1,0,0,1,788.6666666666666,54.19999999999993) translate(15.825000000000003 37)"/><use xlink:href="#u" transform="matrix(1,0,0,1,788.6666666666666,54.19999999999993) translate(47.825 37)"/><use xlink:href="#v" transform="matrix(1,0,0,1,788.6666666666666,54.19999999999993) translate(119.175 37)"/><use xlink:href="#w" transform="matrix(1,0,0,1,788.6666666666666,54.19999999999993) translate(25.875 58.6)"/><use xlink:href="#x" transform="matrix(1,0,0,1,788.6666666666666,54.19999999999993) translate(109.125 58.6)"/><use xlink:href="#f" transform="matrix(1,0,0,1,788.6666666666666,54.19999999999993) translate(13.074999999999996 80.20000000000002)"/><use xlink:href="#y" transform="matrix(1,0,0,1,788.6666666666666,54.19999999999993) translate(68.025 80.20000000000002)"/><path d="M421.67 1469.2h160v120h-160z" stroke="#000" stroke-width="2" fill="#fff"/><use xlink:href="#z" transform="matrix(1,0,0,1,426.6666666666667,1474.1999999999998) translate(22.099999999999994 47.8)"/><use xlink:href="#A" transform="matrix(1,0,0,1,426.6666666666667,1474.1999999999998) translate(79 47.8)"/><use xlink:href="#B" transform="matrix(1,0,0,1,426.6666666666667,1474.1999999999998) translate(38.5 69.4)"/><path d="M1102.67 519.7h-2v-38.83h-55.16v-2h57.17zm-116.34-38.83v-2h29.83v2z"/><path d="M986.36 480.87H984l1.33-1-1.33-1h2.36zM1101.67 534.96l-4.64-14.26h9.27z"/><path d="M1101.67 538.2l-6.02-18.5h12.03zm-3.26-16.5l3.27 10.03 3.26-10.03z"/><use xlink:href="#C" transform="matrix(1,0,0,1,1016.1605755731464,469.0666666666666) translate(0 14.4)"/><path d="M221.67 589.2l80 60-80 60-80-60z" stroke="#000" stroke-width="2" fill="#fff"/><use xlink:href="#D" transform="matrix(1,0,0,1,146.66666666666669,594.1999999999999) translate(16.424999999999997 58.6)"/><use xlink:href="#E" transform="matrix(1,0,0,1,146.66666666666669,594.1999999999999) translate(56.724999999999994 58.6)"/><use xlink:href="#F" transform="matrix(1,0,0,1,146.66666666666669,594.1999999999999) translate(89.675 58.6)"/><path d="M101 648.2h38v2H99V341.5h2zm138.5-517H101v188.7h-2V129.2h140.5z"/><path d="M140 649.2l1.33 1h-2.36v-2h2.36zM254.76 130.2l-14.26 4.64v-9.27z"/><path d="M258 130.2l-18.5 6.02V124.2zm-16.5 3.27l10.03-3.26-10.03-3.25z"/><use xlink:href="#G" transform="matrix(1,0,0,1,88.525,319.90413269846186) translate(0 14.4)"/><path d="M308.86 539.88h-86.2v29.57h-2v-31.57h88.2zm111.14 0h-88.2v-2H418V490.8h2z"/><path d="M420 490.83h-2v-1.8l1 .78 1-.78zM221.67 584.7l-4.64-14.25h9.27z"/><path d="M221.67 587.95l-6.02-18.5h12.03zm-3.26-16.5l3.27 10.03 3.26-10.03z"/><use xlink:href="#G" transform="matrix(1,0,0,1,308.85833333333335,528.0775414457654) translate(0 14.4)"/><path d="M672.64 379.53H561.62v-2h109.02V254.67h2zm91.52-269.33h-91.52v122.87h-2V108.2h93.52z"/><path d="M561.64 379.53h-2.3l1.28-1-1.27-1h2.3zM779.43 109.2l-14.27 4.64v-9.28z"/><path d="M782.67 109.2l-18.5 6v-12zm-16.5 3.26l10.02-3.26-10.04-3.26z"/><use xlink:href="#C" transform="matrix(1,0,0,1,656.9676285067318,233.06666666666658) translate(0 14.4)"/><path d="M383.5 768.2h59.66v2H381.5V720h2zm0-69.8h-2v-48.2h-77.17v-2h79.17z"/><path d="M304.36 650.2H302l1.33-1-1.33-1h2.36zM458.43 769.2l-14.27 4.64v-9.28z"/><path d="M461.67 769.2l-18.5 6v-12zm-16.5 3.26l10.02-3.26-10.04-3.26z"/><use xlink:href="#C" transform="matrix(1,0,0,1,367.825,698.4) translate(0 14.4)"/><path d="M462.67 709.2h160v120h-160z" stroke="#000" stroke-width="2" fill="#fff"/><use xlink:href="#H" transform="matrix(1,0,0,1,467.66666666666674,714.1999999999999) translate(45 47.8)"/><use xlink:href="#I" transform="matrix(1,0,0,1,467.66666666666674,714.1999999999999) translate(4.125 69.4)"/><use xlink:href="#J" transform="matrix(1,0,0,1,467.66666666666674,714.1999999999999) translate(113.97500000000001 69.4)"/><path d="M864.67 1128.2h137.5v2h-139.5V781.43h2zm0-368.37h-2v-187.7h2z"/><path d="M864.67 572.14h-2v-1.77l1 .75 1-.75zM1017.43 1129.2l-14.27 4.64v-9.28z"/><path d="M1020.67 1129.2l-18.5 6v-12zm-16.5 3.26l10.02-3.26-10.04-3.26z"/><use xlink:href="#G" transform="matrix(1,0,0,1,852.1916666666666,759.83105560377) translate(0 14.4)"/><path d="M141.67 1024.2h160v120h-160z" stroke="#000" stroke-width="2" fill="#fff"/><use xlink:href="#t" transform="matrix(1,0,0,1,146.66666666666669,1029.1999999999998) translate(25.825000000000003 37)"/><use xlink:href="#K" transform="matrix(1,0,0,1,146.66666666666669,1029.1999999999998) translate(57.825 37)"/><use xlink:href="#L" transform="matrix(1,0,0,1,146.66666666666669,1029.1999999999998) translate(27.900000000000006 58.6)"/><use xlink:href="#M" transform="matrix(1,0,0,1,146.66666666666669,1029.1999999999998) translate(107.1 58.6)"/><use xlink:href="#N" transform="matrix(1,0,0,1,146.66666666666669,1029.1999999999998) translate(13.074999999999996 80.20000000000002)"/><use xlink:href="#y" transform="matrix(1,0,0,1,146.66666666666669,1029.1999999999998) translate(68.025 80.20000000000002)"/><path d="M1021.67 539.2h160v120h-160z" stroke="#000" stroke-width="2" fill="#fff"/><use xlink:href="#t" transform="matrix(1,0,0,1,1026.6666666666665,544.1999999999999) translate(15.825000000000003 37)"/><use xlink:href="#u" transform="matrix(1,0,0,1,1026.6666666666665,544.1999999999999) translate(47.825 37)"/><use xlink:href="#v" transform="matrix(1,0,0,1,1026.6666666666665,544.1999999999999) translate(119.175 37)"/><use xlink:href="#w" transform="matrix(1,0,0,1,1026.6666666666665,544.1999999999999) translate(9.900000000000006 58.6)"/><use xlink:href="#q" transform="matrix(1,0,0,1,1026.6666666666665,544.1999999999999) translate(93.15 58.6)"/><use xlink:href="#O" transform="matrix(1,0,0,1,1026.6666666666665,544.1999999999999) translate(113.15 58.6)"/><use xlink:href="#P" transform="matrix(1,0,0,1,1026.6666666666665,544.1999999999999) translate(41.525 80.20000000000002)"/><path d="M1021.67 879.2h160v120h-160z" stroke="#000" stroke-width="2" fill="#fff"/><use xlink:href="#Q" transform="matrix(1,0,0,1,1026.6666666666665,884.2) translate(9.049999999999997 37)"/><use xlink:href="#R" transform="matrix(1,0,0,1,1026.6666666666665,884.2) translate(67.95 37)"/><use xlink:href="#S" transform="matrix(1,0,0,1,1026.6666666666665,884.2) translate(26.574999999999996 58.6)"/><use xlink:href="#T" transform="matrix(1,0,0,1,1026.6666666666665,884.2) translate(46.574999999999996 58.6)"/><use xlink:href="#U" transform="matrix(1,0,0,1,1026.6666666666665,884.2) translate(100.475 58.6)"/><use xlink:href="#V" transform="matrix(1,0,0,1,1026.6666666666665,884.2) translate(7.549999999999997 80.20000000000002)"/><use xlink:href="#W" transform="matrix(1,0,0,1,1026.6666666666665,884.2) translate(113.45 80.20000000000002)"/><path d="M1021.67 1069.2h160v120h-160z" stroke="#000" stroke-width="2" fill="#fff"/><path d="M1037.67 1069.2v120m128-120v120" stroke="#000" stroke-width="2" fill="none"/><use xlink:href="#X" transform="matrix(1,0,0,1,1046.6666666666665,1074.1999999999998) translate(29.025 15.399999999999993)"/><use xlink:href="#Y" transform="matrix(1,0,0,1,1046.6666666666665,1074.1999999999998) translate(26.049999999999997 36.99999999999999)"/><use xlink:href="#Z" transform="matrix(1,0,0,1,1046.6666666666665,1074.1999999999998) translate(2.549999999999997 58.599999999999994)"/><use xlink:href="#x" transform="matrix(1,0,0,1,1046.6666666666665,1074.1999999999998) translate(92.45 58.599999999999994)"/><use xlink:href="#aa" transform="matrix(1,0,0,1,1046.6666666666665,1074.1999999999998) translate(26 80.20000000000002)"/><use xlink:href="#ab" transform="matrix(1,0,0,1,1046.6666666666665,1074.1999999999998) translate(30.049999999999997 101.80000000000001)"/><path d="M1021.67 1249.2h160v120h-160z" stroke="#000" stroke-width="2" fill="#fff"/><path d="M1037.67 1249.2v120m128-120v120" stroke="#000" stroke-width="2" fill="none"/><use xlink:href="#ac" transform="matrix(1,0,0,1,1046.6666666666665,1254.1999999999998) translate(20.074999999999996 15.399999999999993)"/><use xlink:href="#Y" transform="matrix(1,0,0,1,1046.6666666666665,1254.1999999999998) translate(26.049999999999997 36.99999999999999)"/><use xlink:href="#Z" transform="matrix(1,0,0,1,1046.6666666666665,1254.1999999999998) translate(0.04999999999999716 58.599999999999994)"/><use xlink:href="#ad" transform="matrix(1,0,0,1,1046.6666666666665,1254.1999999999998) translate(89.95 58.599999999999994)"/><use xlink:href="#aa" transform="matrix(1,0,0,1,1046.6666666666665,1254.1999999999998) translate(26 80.20000000000002)"/><use xlink:href="#ab" transform="matrix(1,0,0,1,1046.6666666666665,1254.1999999999998) translate(30.049999999999997 101.80000000000001)"/><path d="M1101.67 1191.2v38.5" stroke="#000" stroke-width="2" fill="none"/><path d="M1102.67 1191.23h-2v-1.03h2z"/><path d="M1101.67 1244.96l-4.64-14.26h9.27z" stroke="#000" stroke-width="2"/><path d="M1001.67 1469.2h200v140h-200z" stroke="#000" stroke-width="2" fill="#fff"/><path d="M1021.67 1469.2v140m160-140v140" stroke="#000" stroke-width="2" fill="none"/><use xlink:href="#ae" transform="matrix(1,0,0,1,1031.6666666666665,1474.1999999999998) translate(8.549999999999997 36.19999999999999)"/><use xlink:href="#Y" transform="matrix(1,0,0,1,1031.6666666666665,1474.1999999999998) translate(73.55 36.19999999999999)"/><use xlink:href="#af" transform="matrix(1,0,0,1,1031.6666666666665,1474.1999999999998) translate(22.599999999999994 57.79999999999999)"/><use xlink:href="#ag" transform="matrix(1,0,0,1,1031.6666666666665,1474.1999999999998) translate(70.55 57.79999999999999)"/><use xlink:href="#ah" transform="matrix(1,0,0,1,1031.6666666666665,1474.1999999999998) translate(101.45 57.79999999999999)"/><use xlink:href="#ai" transform="matrix(1,0,0,1,1031.6666666666665,1474.1999999999998) translate(2.5749999999999886 79.4)"/><use xlink:href="#aj" transform="matrix(1,0,0,1,1031.6666666666665,1474.1999999999998) translate(48.52499999999999 79.4)"/><use xlink:href="#ak" transform="matrix(1,0,0,1,1031.6666666666665,1474.1999999999998) translate(87.475 79.4)"/><use xlink:href="#al" transform="matrix(1,0,0,1,1031.6666666666665,1474.1999999999998) translate(113.425 79.4)"/><use xlink:href="#am" transform="matrix(1,0,0,1,1031.6666666666665,1474.1999999999998) translate(21.025 101)"/><path d="M1021.67 1709.2h160v120h-160z" stroke="#000" stroke-width="2" fill="#fff"/><path d="M1037.67 1709.2v120m128-120v120" stroke="#000" stroke-width="2" fill="none"/><use xlink:href="#an" transform="matrix(1,0,0,1,1046.6666666666665,1714.1999999999998) translate(1.5999999999999943 26.19999999999999)"/><use xlink:href="#Y" transform="matrix(1,0,0,1,1046.6666666666665,1714.1999999999998) translate(50.5 26.19999999999999)"/><use xlink:href="#ao" transform="matrix(1,0,0,1,1046.6666666666665,1714.1999999999998) translate(12.549999999999997 47.79999999999999)"/><use xlink:href="#ap" transform="matrix(1,0,0,1,1046.6666666666665,1714.1999999999998) translate(5.549999999999997 69.39999999999999)"/><use xlink:href="#aa" transform="matrix(1,0,0,1,1046.6666666666665,1714.1999999999998) translate(46.449999999999996 69.39999999999999)"/><use xlink:href="#ab" transform="matrix(1,0,0,1,1046.6666666666665,1714.1999999999998) translate(30.049999999999997 91)"/><path d="M783.67 1709.2h160v120h-160z" stroke="#000" stroke-width="2" fill="#fff"/><path d="M799.67 1709.2v120m128-120v120" stroke="#000" stroke-width="2" fill="none"/><use xlink:href="#aq" transform="matrix(1,0,0,1,808.6666666666666,1714.1999999999998) translate(18.549999999999997 15.399999999999993)"/><use xlink:href="#Y" transform="matrix(1,0,0,1,808.6666666666666,1714.1999999999998) translate(26.049999999999997 36.99999999999999)"/><use xlink:href="#ao" transform="matrix(1,0,0,1,808.6666666666666,1714.1999999999998) translate(12.549999999999997 58.599999999999994)"/><use xlink:href="#ap" transform="matrix(1,0,0,1,808.6666666666666,1714.1999999999998) translate(5.549999999999997 80.20000000000002)"/><use xlink:href="#aa" transform="matrix(1,0,0,1,808.6666666666666,1714.1999999999998) translate(46.449999999999996 80.20000000000002)"/><use xlink:href="#ab" transform="matrix(1,0,0,1,808.6666666666666,1714.1999999999998) translate(30.049999999999997 101.80000000000001)"/><path d="M1101.67 1611.2v78.5" stroke="#000" stroke-width="2" fill="none"/><path d="M1102.67 1611.23h-2v-1.03h2z"/><path d="M1101.67 1704.96l-4.64-14.26h9.27z" stroke="#000" stroke-width="2"/><path d="M1019.67 1769.2h-56.5" stroke="#000" stroke-width="2" fill="none"/><path d="M1020.67 1770.2h-1.03v-2h1.03z"/><path d="M947.9 1769.2l14.27-4.64v9.28z" stroke="#000" stroke-width="2"/><path d="M221.67 1549.2l120 90-120 90-120-90z" stroke="#000" stroke-width="2" fill="#fff"/><g><use xlink:href="#l" transform="matrix(1,0,0,1,106.66666666666669,1554.1999999999998) translate(39.599999999999994 67)"/><use xlink:href="#m" transform="matrix(1,0,0,1,106.66666666666669,1554.1999999999998) translate(94.55 67)"/><use xlink:href="#n" transform="matrix(1,0,0,1,106.66666666666669,1554.1999999999998) translate(112.5 67)"/><use xlink:href="#o" transform="matrix(1,0,0,1,106.66666666666669,1554.1999999999998) translate(11.575000000000003 88.60000000000001)"/><use xlink:href="#m" transform="matrix(1,0,0,1,106.66666666666669,1554.1999999999998) translate(46.575 88.60000000000001)"/><use xlink:href="#p" transform="matrix(1,0,0,1,106.66666666666669,1554.1999999999998) translate(64.525 88.60000000000001)"/><use xlink:href="#q" transform="matrix(1,0,0,1,106.66666666666669,1554.1999999999998) translate(138.525 88.60000000000001)"/><use xlink:href="#r" transform="matrix(1,0,0,1,106.66666666666669,1554.1999999999998) translate(158.52499999999998 88.60000000000001)"/><use xlink:href="#s" transform="matrix(1,0,0,1,106.66666666666669,1554.1999999999998) translate(101.525 110.20000000000002)"/></g><path d="M781.67 1769.2h-560v-20.25" stroke="#000" stroke-width="2" fill="none"/><path d="M782.67 1770.2h-1.03v-2h1.03z"/><path d="M221.67 1733.7l4.63 14.25h-9.27z" stroke="#000" stroke-width="2"/><path d="M421.67 1299.2h160v120h-160z" stroke="#000" stroke-width="2" fill="#fff"/><g><use xlink:href="#t" transform="matrix(1,0,0,1,426.6666666666667,1304.1999999999998) translate(25.825000000000003 37)"/><use xlink:href="#K" transform="matrix(1,0,0,1,426.6666666666667,1304.1999999999998) translate(57.825 37)"/><use xlink:href="#L" transform="matrix(1,0,0,1,426.6666666666667,1304.1999999999998) translate(27.900000000000006 58.6)"/><use xlink:href="#M" transform="matrix(1,0,0,1,426.6666666666667,1304.1999999999998) translate(107.1 58.6)"/><use xlink:href="#ar" transform="matrix(1,0,0,1,426.6666666666667,1304.1999999999998) translate(25.549999999999997 80.20000000000002)"/><use xlink:href="#P" transform="matrix(1,0,0,1,426.6666666666667,1304.1999999999998) translate(57.5 80.20000000000002)"/></g><path d="M501.67 1467.2v-28.5" stroke="#000" stroke-width="2" fill="none"/><path d="M502.67 1468.2h-2v-1.03h2z"/><path d="M501.67 1423.44l4.63 14.26h-9.27z" stroke="#000" stroke-width="2"/><path d="M590.67 889.2c17.67 0 32 17.9 32 40s-14.33 40-32 40h-96c-17.68 0-32-17.9-32-40s14.32-40 32-40z" stroke="#000" stroke-width="2" fill="#fff"/><g><use xlink:href="#as" transform="matrix(1,0,0,1,467.66666666666674,894.1999999999999) translate(35.599999999999994 38.6)"/></g><path d="M542.67 831.2v38.5" stroke="#000" stroke-width="2" fill="none"/><path d="M543.67 831.23h-2v-1.03h2z"/><path d="M542.67 884.96l-4.64-14.26h9.27z" stroke="#000" stroke-width="2"/><path d="M1101.67 1371.2v78.5" stroke="#000" stroke-width="2" fill="none"/><path d="M1102.67 1371.23h-2v-1.03h2z"/><path d="M1101.67 1464.96l-4.64-14.26h9.27z" stroke="#000" stroke-width="2"/><path d="M1101.67 1001.2v48.5" stroke="#000" stroke-width="2" fill="none"/><path d="M1102.67 1001.23h-2v-1.03h2z"/><path d="M1101.67 1064.96l-4.64-14.26h9.27z" stroke="#000" stroke-width="2"/><path d="M783.67 219.53h160v120h-160z" stroke="#000" stroke-width="2" fill="#fff"/><g><use xlink:href="#at" transform="matrix(1,0,0,1,788.6666666666666,224.5333333333332) translate(28.525 58.6)"/><use xlink:href="#au" transform="matrix(1,0,0,1,788.6666666666666,224.5333333333332) translate(71.525 58.6)"/></g><path d="M863.67 171.2v28.83" stroke="#000" stroke-width="2" fill="none"/><path d="M864.67 171.23h-2v-1.03h2z"/><path d="M863.67 215.3l-4.64-14.27h9.27z" stroke="#000" stroke-width="2"/><path d="M863.67 341.53v28.58" stroke="#000" stroke-width="2" fill="none"/><path d="M864.67 341.56h-2v-1.03h2z"/><path d="M863.67 385.38l-4.64-14.27h9.27z" stroke="#000" stroke-width="2"/><path d="M141.67 869.2h160v120h-160z" stroke="#000" stroke-width="2" fill="#fff"/><g><use xlink:href="#av" transform="matrix(1,0,0,1,146.66666666666669,874.1999999999999) translate(20.074999999999996 58.6)"/><use xlink:href="#au" transform="matrix(1,0,0,1,146.66666666666669,874.1999999999999) translate(79.975 58.6)"/></g><path d="M221.67 1022.2v-13.5" stroke="#000" stroke-width="2" fill="none"/><path d="M222.67 1023.2h-2v-1.03h2z"/><path d="M221.67 993.44l4.63 14.26h-9.27z" stroke="#000" stroke-width="2"/><path d="M1021.67 709.2h160v120h-160z" stroke="#000" stroke-width="2" fill="#fff"/><g><use xlink:href="#at" transform="matrix(1,0,0,1,1026.6666666666665,714.1999999999999) translate(40.025 58.6)"/><use xlink:href="#s" transform="matrix(1,0,0,1,1026.6666666666665,714.1999999999999) translate(83.025 58.6)"/></g><path d="M1101.67 661.2v28.5" stroke="#000" stroke-width="2" fill="none"/><path d="M1102.67 661.23h-2v-1.03h2z"/><path d="M1101.67 704.96l-4.64-14.26h9.27z" stroke="#000" stroke-width="2"/><path d="M1101.67 831.2v28.5" stroke="#000" stroke-width="2" fill="none"/><path d="M1102.67 831.23h-2v-1.03h2z"/><path d="M1101.67 874.96l-4.64-14.26h9.27z" stroke="#000" stroke-width="2"/><path d="M421.67 1129.2h160v120h-160z" stroke="#000" stroke-width="2" fill="#fff"/><g><use xlink:href="#av" transform="matrix(1,0,0,1,426.6666666666667,1134.1999999999998) translate(31.574999999999996 58.6)"/><use xlink:href="#s" transform="matrix(1,0,0,1,426.6666666666667,1134.1999999999998) translate(91.475 58.6)"/></g><path d="M501.67 1297.2v-28.5" stroke="#000" stroke-width="2" fill="none"/><path d="M502.67 1298.2h-2v-1.03h2z"/><path d="M501.67 1253.44l4.63 14.26h-9.27z" stroke="#000" stroke-width="2"/><path d="M419 215.84v32.92" stroke="#000" stroke-width="2" fill="none"/><path d="M420 215.87h-2v-.68l2-.7z"/><path d="M419 264.03l-4.64-14.27h9.28z" stroke="#000" stroke-width="2"/><path d="M222.67 1546.95h-2v-189.58h2zm0-211.17h-2V1163.7h2z"/><path d="M222.67 1548.7l-1-.75-1 .75v-1.78h2zM226.3 1162.7h-9.27l4.64-14.26z"/><path d="M227.68 1163.7h-12.03l6.02-18.5zm-9.27-2h6.53l-3.26-10.03z"/><g><use xlink:href="#aw" transform="matrix(1,0,0,1,210.1916666666667,1335.7749999999999) translate(0 14.4)"/></g><path d="M399.7 1640.2h-55.37v-2h55.38zm102.97 0h-73.6v-2h71.6v-29.5h2z"/><path d="M344.36 1640.2H342l1.33-1-1.33-1h2.36zM506.3 1607.7h-9.27l4.64-14.26z"/><path d="M507.68 1608.7h-12.03l6.02-18.5zm-9.27-2h6.53l-3.26-10.03z"/><g><use xlink:href="#ax" transform="matrix(1,0,0,1,399.7107677902622,1628.3999999999999) translate(0 14.4)"/></g><path d="M501.67 1127.2v-43h-180.5" stroke="#000" stroke-width="2" fill="none"/><path d="M502.67 1128.2h-2v-1.03h2z"/><path d="M305.9 1084.2l14.27-4.64v9.28z" stroke="#000" stroke-width="2"/><path d="M221.67 867.2V728.95" stroke="#000" stroke-width="2" fill="none"/><path d="M222.67 868.2h-2v-1.03h2z"/><path d="M221.67 713.7l4.63 14.25h-9.27z" stroke="#000" stroke-width="2"/><defs><path d="M33 0v-248h34V0H33" id="ay"/><path d="M59-47c-2 24 18 29 38 22v24C64 9 27 4 27-40v-127H5v-23h24l9-43h21v43h35v23H59v120" id="az"/><path d="M100-194c63 0 86 42 84 106H49c0 40 14 67 53 68 26 1 43-12 49-29l28 8c-11 28-37 45-77 45C44 4 14-33 15-96c1-61 26-98 85-98zm52 81c6-60-76-77-97-28-3 7-6 17-6 28h103" id="aA"/><path d="M114-163C36-179 61-72 57 0H25l-1-190h30c1 12-1 29 2 39 6-27 23-49 58-41v29" id="aB"/><path d="M141-36C126-15 110 5 73 4 37 3 15-17 15-53c-1-64 63-63 125-63 3-35-9-54-41-54-24 1-41 7-42 31l-33-3c5-37 33-52 76-52 45 0 72 20 72 64v82c-1 20 7 32 28 27v20c-31 9-61-2-59-35zM48-53c0 20 12 33 32 33 41-3 63-29 60-74-43 2-92-5-92 41" id="aC"/><path d="M24-231v-30h32v30H24zM24 0v-190h32V0H24" id="aD"/><path d="M100-194c62-1 85 37 85 99 1 63-27 99-86 99S16-35 15-95c0-66 28-99 85-99zM99-20c44 1 53-31 53-75 0-43-8-75-51-75s-53 32-53 75 10 74 51 75" id="aE"/><path d="M117-194c89-4 53 116 60 194h-32v-121c0-31-8-49-39-48C34-167 62-67 57 0H25l-1-190h30c1 10-1 24 2 32 11-22 29-35 61-36" id="aF"/><g id="a"><use transform="matrix(0.05,0,0,0.05,0,0)" xlink:href="#ay"/><use transform="matrix(0.05,0,0,0.05,5,0)" xlink:href="#az"/><use transform="matrix(0.05,0,0,0.05,10,0)" xlink:href="#aA"/><use transform="matrix(0.05,0,0,0.05,20,0)" xlink:href="#aB"/><use transform="matrix(0.05,0,0,0.05,25.950000000000003,0)" xlink:href="#aC"/><use transform="matrix(0.05,0,0,0.05,35.95,0)" xlink:href="#az"/><use transform="matrix(0.05,0,0,0.05,40.95,0)" xlink:href="#aD"/><use transform="matrix(0.05,0,0,0.05,44.900000000000006,0)" xlink:href="#aE"/><use transform="matrix(0.05,0,0,0.05,54.900000000000006,0)" xlink:href="#aF"/></g><path d="M108 0H70L1-190h34L89-25l56-165h34" id="aG"/><g id="b"><use transform="matrix(0.05,0,0,0.05,0,0)" xlink:href="#aE"/><use transform="matrix(0.05,0,0,0.05,10,0)" xlink:href="#aG"/><use transform="matrix(0.05,0,0,0.05,19,0)" xlink:href="#aA"/><use transform="matrix(0.05,0,0,0.05,29,0)" xlink:href="#aB"/></g><path d="M135-143c-3-34-86-38-87 0 15 53 115 12 119 90S17 21 10-45l28-5c4 36 97 45 98 0-10-56-113-15-118-90-4-57 82-63 122-42 12 7 21 19 24 35" id="aH"/><path d="M24 0v-261h32V0H24" id="aI"/><path d="M96-169c-40 0-48 33-48 73s9 75 48 75c24 0 41-14 43-38l32 2c-6 37-31 61-74 61-59 0-76-41-82-99-10-93 101-131 147-64 4 7 5 14 7 22l-32 3c-4-21-16-35-41-35" id="aJ"/><path d="M85-194c31 0 48 13 60 33l-1-100h32l1 261h-30c-2-10 0-23-3-31C134-8 116 4 85 4 32 4 16-35 15-94c0-66 23-100 70-100zm9 24c-40 0-46 34-46 75 0 40 6 74 45 74 42 0 51-32 51-76 0-42-9-74-50-73" id="aK"/><g id="c"><use transform="matrix(0.05,0,0,0.05,0,0)" xlink:href="#aH"/><use transform="matrix(0.05,0,0,0.05,9,0)" xlink:href="#aA"/><use transform="matrix(0.05,0,0,0.05,19,0)" xlink:href="#aI"/><use transform="matrix(0.05,0,0,0.05,22.95,0)" xlink:href="#aA"/><use transform="matrix(0.05,0,0,0.05,32.95,0)" xlink:href="#aJ"/><use transform="matrix(0.05,0,0,0.05,41.95,0)" xlink:href="#az"/><use transform="matrix(0.05,0,0,0.05,46.95,0)" xlink:href="#aA"/><use transform="matrix(0.05,0,0,0.05,56.95,0)" xlink:href="#aK"/></g><path d="M210-169c-67 3-38 105-44 169h-31v-121c0-29-5-50-35-48C34-165 62-65 56 0H25l-1-190h30c1 10-1 24 2 32 10-44 99-50 107 0 11-21 27-35 58-36 85-2 47 119 55 194h-31v-121c0-29-5-49-35-48" id="aL"/><path d="M177-190C167-65 218 103 67 71c-23-6-38-20-44-43l32-5c15 47 100 32 89-28v-30C133-14 115 1 83 1 29 1 15-40 15-95c0-56 16-97 71-98 29-1 48 16 59 35 1-10 0-23 2-32h30zM94-22c36 0 50-32 50-73 0-42-14-75-50-75-39 0-46 34-46 75s6 73 46 73" id="aM"/><g id="d"><use transform="matrix(0.05,0,0,0.05,0,0)" xlink:href="#aD"/><use transform="matrix(0.05,0,0,0.05,3.95,0)" xlink:href="#aL"/><use transform="matrix(0.05,0,0,0.05,18.900000000000002,0)" xlink:href="#aC"/><use transform="matrix(0.05,0,0,0.05,28.900000000000002,0)" xlink:href="#aM"/><use transform="matrix(0.05,0,0,0.05,38.900000000000006,0)" xlink:href="#aA"/><use transform="matrix(0.05,0,0,0.05,48.900000000000006,0)" xlink:href="#aH"/></g><g id="e"><use transform="matrix(0.05,0,0,0.05,0,0)" xlink:href="#ay"/><use transform="matrix(0.05,0,0,0.05,5,0)" xlink:href="#aH"/></g><g id="f"><use transform="matrix(0.05,0,0,0.05,0,0)" xlink:href="#ay"/><use transform="matrix(0.05,0,0,0.05,5,0)" xlink:href="#aL"/><use transform="matrix(0.05,0,0,0.05,19.950000000000003,0)" xlink:href="#aC"/><use transform="matrix(0.05,0,0,0.05,29.950000000000003,0)" xlink:href="#aM"/><use transform="matrix(0.05,0,0,0.05,39.95,0)" xlink:href="#aA"/></g><path d="M30-248c118-7 216 8 213 122C240-48 200 0 122 0H30v-248zM63-27c89 8 146-16 146-99s-60-101-146-95v194" id="aN"/><g id="g"><use transform="matrix(0.05,0,0,0.05,0,0)" xlink:href="#aN"/><use transform="matrix(0.05,0,0,0.05,12.950000000000001,0)" xlink:href="#aC"/><use transform="matrix(0.05,0,0,0.05,22.950000000000003,0)" xlink:href="#az"/><use transform="matrix(0.05,0,0,0.05,27.950000000000003,0)" xlink:href="#aC"/><use transform="matrix(0.05,0,0,0.05,37.95,0)" xlink:href="#aH"/><use transform="matrix(0.05,0,0,0.05,46.95,0)" xlink:href="#az"/><use transform="matrix(0.05,0,0,0.05,51.95,0)" xlink:href="#aE"/><use transform="matrix(0.05,0,0,0.05,61.95,0)" xlink:href="#aB"/><use transform="matrix(0.05,0,0,0.05,67.9,0)" xlink:href="#aA"/></g><path d="M127-220V0H93v-220H8v-28h204v28h-85" id="aO"/><path d="M240 0l2-218c-23 76-54 145-80 218h-23L58-218 59 0H30v-248h44l77 211c21-75 51-140 76-211h43V0h-30" id="aP"/><path d="M-5 72V49h209v23H-5" id="aQ"/><path d="M205 0l-28-72H64L36 0H1l101-248h38L239 0h-34zm-38-99l-47-123c-12 45-31 82-46 123h93" id="aR"/><g id="i"><use transform="matrix(0.05,0,0,0.05,0,0)" xlink:href="#aO"/><use transform="matrix(0.05,0,0,0.05,10.950000000000001,0)" xlink:href="#aP"/><use transform="matrix(0.05,0,0,0.05,25.900000000000002,0)" xlink:href="#aQ"/><use transform="matrix(0.05,0,0,0.05,35.900000000000006,0)" xlink:href="#aP"/><use transform="matrix(0.05,0,0,0.05,50.85000000000001,0)" xlink:href="#aR"/><use transform="matrix(0.05,0,0,0.05,62.85,0)" xlink:href="#aN"/></g><path d="M18-150v-26h174v26H18zm0 90v-26h174v26H18" id="aS"/><g id="j"><use transform="matrix(0.05,0,0,0.05,0,0)" xlink:href="#aS"/><use transform="matrix(0.05,0,0,0.05,10.5,0)" xlink:href="#aS"/></g><path d="M126-127c33 6 58 20 58 59 0 88-139 92-164 29-3-8-5-16-6-25l32-3c6 27 21 44 54 44 32 0 52-15 52-46 0-38-36-46-79-43v-28c39 1 72-4 72-42 0-27-17-43-46-43-28 0-47 15-49 41l-32-3c6-42 35-63 81-64 48-1 79 21 79 65 0 36-21 52-52 59" id="aT"/><path d="M115-194c55 1 70 41 70 98S169 2 115 4C84 4 66-9 55-30l1 105H24l-1-265h31l2 30c10-21 28-34 59-34zm-8 174c40 0 45-34 45-75s-6-73-45-74c-42 0-51 32-51 76 0 43 10 73 51 73" id="aU"/><path d="M103-251c84 0 111 97 45 133-19 10-37 24-39 52H78c0-63 77-55 77-114 0-30-21-42-52-43-32 0-53 17-56 46l-32-2c7-45 34-72 88-72zM77 0v-35h34V0H77" id="aV"/><g id="k"><use transform="matrix(0.05,0,0,0.05,0,0)" xlink:href="#aT"/><use transform="matrix(0.05,0,0,0.05,10,0)" xlink:href="#aU"/><use transform="matrix(0.05,0,0,0.05,20,0)" xlink:href="#aC"/><use transform="matrix(0.05,0,0,0.05,30,0)" xlink:href="#aB"/><use transform="matrix(0.05,0,0,0.05,35.95,0)" xlink:href="#aV"/></g><g id="l"><use transform="matrix(0.05,0,0,0.05,0,0)" xlink:href="#ay"/><use transform="matrix(0.05,0,0,0.05,5,0)" xlink:href="#aL"/><use transform="matrix(0.05,0,0,0.05,19.950000000000003,0)" xlink:href="#aC"/><use transform="matrix(0.05,0,0,0.05,29.950000000000003,0)" xlink:href="#aM"/><use transform="matrix(0.05,0,0,0.05,39.95,0)" xlink:href="#aA"/></g><g id="m"><use transform="matrix(0.05,0,0,0.05,0,0)" xlink:href="#aD"/><use transform="matrix(0.05,0,0,0.05,3.95,0)" xlink:href="#aH"/></g><g id="n"><use transform="matrix(0.05,0,0,0.05,0,0)" xlink:href="#aU"/><use transform="matrix(0.05,0,0,0.05,10,0)" xlink:href="#aA"/><use transform="matrix(0.05,0,0,0.05,20,0)" xlink:href="#aB"/><use transform="matrix(0.05,0,0,0.05,25.950000000000003,0)" xlink:href="#aH"/><use transform="matrix(0.05,0,0,0.05,34.95,0)" xlink:href="#aD"/><use transform="matrix(0.05,0,0,0.05,38.900000000000006,0)" xlink:href="#aH"/><use transform="matrix(0.05,0,0,0.05,47.900000000000006,0)" xlink:href="#az"/><use transform="matrix(0.05,0,0,0.05,52.900000000000006,0)" xlink:href="#aA"/><use transform="matrix(0.05,0,0,0.05,62.900000000000006,0)" xlink:href="#aF"/><use transform="matrix(0.05,0,0,0.05,72.9,0)" xlink:href="#az"/></g><g id="o"><use transform="matrix(0.05,0,0,0.05,0,0)" xlink:href="#aC"/><use transform="matrix(0.05,0,0,0.05,10,0)" xlink:href="#aF"/><use transform="matrix(0.05,0,0,0.05,20,0)" xlink:href="#aK"/></g><path d="M106-169C34-169 62-67 57 0H25v-261h32l-1 103c12-21 28-36 61-36 89 0 53 116 60 194h-32v-121c2-32-8-49-39-48" id="aW"/><g id="p"><use transform="matrix(0.05,0,0,0.05,0,0)" xlink:href="#aC"/><use transform="matrix(0.05,0,0,0.05,10,0)" xlink:href="#az"/><use transform="matrix(0.05,0,0,0.05,15,0)" xlink:href="#az"/><use transform="matrix(0.05,0,0,0.05,20,0)" xlink:href="#aC"/><use transform="matrix(0.05,0,0,0.05,30,0)" xlink:href="#aJ"/><use transform="matrix(0.05,0,0,0.05,39,0)" xlink:href="#aW"/><use transform="matrix(0.05,0,0,0.05,49,0)" xlink:href="#aA"/><use transform="matrix(0.05,0,0,0.05,59,0)" xlink:href="#aK"/></g><g id="q"><use transform="matrix(0.05,0,0,0.05,0,0)" xlink:href="#az"/><use transform="matrix(0.05,0,0,0.05,5,0)" xlink:href="#aE"/></g><path d="M84 4C-5 8 30-112 23-190h32v120c0 31 7 50 39 49 72-2 45-101 50-169h31l1 190h-30c-1-10 1-25-2-33-11 22-28 36-60 37" id="aX"/><g id="r"><use transform="matrix(0.05,0,0,0.05,0,0)" xlink:href="#aB"/><use transform="matrix(0.05,0,0,0.05,5.95,0)" xlink:href="#aX"/><use transform="matrix(0.05,0,0,0.05,15.949999999999998,0)" xlink:href="#aF"/><use transform="matrix(0.05,0,0,0.05,25.950000000000003,0)" xlink:href="#aF"/><use transform="matrix(0.05,0,0,0.05,35.95,0)" xlink:href="#aD"/><use transform="matrix(0.05,0,0,0.05,39.900000000000006,0)" xlink:href="#aF"/><use transform="matrix(0.05,0,0,0.05,49.900000000000006,0)" xlink:href="#aM"/></g><path d="M137 0h-34L2-248h35l83 218 83-218h36" id="aY"/><g id="s"><use transform="matrix(0.05,0,0,0.05,0,0)" xlink:href="#aY"/><use transform="matrix(0.05,0,0,0.05,12,0)" xlink:href="#aP"/></g><path d="M185-189c-5-48-123-54-124 2 14 75 158 14 163 119 3 78-121 87-175 55-17-10-28-26-33-46l33-7c5 56 141 63 141-1 0-78-155-14-162-118-5-82 145-84 179-34 5 7 8 16 11 25" id="aZ"/><g id="t"><use transform="matrix(0.05,0,0,0.05,0,0)" xlink:href="#aZ"/><use transform="matrix(0.05,0,0,0.05,12,0)" xlink:href="#aA"/><use transform="matrix(0.05,0,0,0.05,22,0)" xlink:href="#az"/></g><path d="M109-170H84l-4-78h32zm-65 0H19l-4-78h33" id="ba"/><path d="M160-131c35 5 61 23 61 61C221 17 115-2 30 0v-248c76 3 177-17 177 60 0 33-19 50-47 57zm-97-11c50-1 110 9 110-42 0-47-63-36-110-37v79zm0 115c55-2 124 14 124-45 0-56-70-42-124-44v89" id="bb"/><path d="M143 0L79-87 56-68V0H24v-261h32v163l83-92h37l-77 82L181 0h-38" id="bc"/><g id="u"><use transform="matrix(0.05,0,0,0.05,0,0)" xlink:href="#ba"/><use transform="matrix(0.05,0,0,0.05,6.3500000000000005,0)" xlink:href="#bb"/><use transform="matrix(0.05,0,0,0.05,18.35,0)" xlink:href="#aC"/><use transform="matrix(0.05,0,0,0.05,28.35,0)" xlink:href="#aJ"/><use transform="matrix(0.05,0,0,0.05,37.35,0)" xlink:href="#bc"/><use transform="matrix(0.05,0,0,0.05,46.35,0)" xlink:href="#aX"/><use transform="matrix(0.05,0,0,0.05,56.35,0)" xlink:href="#aU"/></g><g id="v"><use transform="matrix(0.05,0,0,0.05,0,0)" xlink:href="#ay"/><use transform="matrix(0.05,0,0,0.05,5,0)" xlink:href="#aF"/></g><path d="M30-248c87 1 191-15 191 75 0 78-77 80-158 76V0H30v-248zm33 125c57 0 124 11 124-50 0-59-68-47-124-48v98" id="bd"/><g id="w"><use transform="matrix(0.05,0,0,0.05,0,0)" xlink:href="#bd"/><use transform="matrix(0.05,0,0,0.05,12,0)" xlink:href="#aB"/><use transform="matrix(0.05,0,0,0.05,17.95,0)" xlink:href="#aE"/><use transform="matrix(0.05,0,0,0.05,27.950000000000003,0)" xlink:href="#aM"/><use transform="matrix(0.05,0,0,0.05,37.95,0)" xlink:href="#aB"/><use transform="matrix(0.05,0,0,0.05,43.900000000000006,0)" xlink:href="#aA"/><use transform="matrix(0.05,0,0,0.05,53.900000000000006,0)" xlink:href="#aH"/><use transform="matrix(0.05,0,0,0.05,62.900000000000006,0)" xlink:href="#aH"/><use transform="matrix(0.05,0,0,0.05,71.9,0)" xlink:href="#ba"/></g><g id="x"><use transform="matrix(0.05,0,0,0.05,0,0)" xlink:href="#az"/><use transform="matrix(0.05,0,0,0.05,5,0)" xlink:href="#aE"/></g><g id="y"><use transform="matrix(0.05,0,0,0.05,0,0)" xlink:href="#az"/><use transform="matrix(0.05,0,0,0.05,5,0)" xlink:href="#aA"/><use transform="matrix(0.05,0,0,0.05,15,0)" xlink:href="#aL"/><use transform="matrix(0.05,0,0,0.05,29.950000000000003,0)" xlink:href="#aU"/><use transform="matrix(0.05,0,0,0.05,39.95,0)" xlink:href="#aI"/><use transform="matrix(0.05,0,0,0.05,43.900000000000006,0)" xlink:href="#aC"/><use transform="matrix(0.05,0,0,0.05,53.900000000000006,0)" xlink:href="#az"/><use transform="matrix(0.05,0,0,0.05,58.900000000000006,0)" xlink:href="#aA"/></g><g id="z"><use transform="matrix(0.05,0,0,0.05,0,0)" xlink:href="#aN"/><use transform="matrix(0.05,0,0,0.05,12.950000000000001,0)" xlink:href="#aA"/><use transform="matrix(0.05,0,0,0.05,22.950000000000003,0)" xlink:href="#aI"/><use transform="matrix(0.05,0,0,0.05,26.900000000000002,0)" xlink:href="#aA"/><use transform="matrix(0.05,0,0,0.05,36.900000000000006,0)" xlink:href="#az"/><use transform="matrix(0.05,0,0,0.05,41.900000000000006,0)" xlink:href="#aA"/></g><g id="A"><use transform="matrix(0.05,0,0,0.05,0,0)" xlink:href="#aD"/><use transform="matrix(0.05,0,0,0.05,3.95,0)" xlink:href="#aL"/><use transform="matrix(0.05,0,0,0.05,18.900000000000002,0)" xlink:href="#aC"/><use transform="matrix(0.05,0,0,0.05,28.900000000000002,0)" xlink:href="#aM"/><use transform="matrix(0.05,0,0,0.05,38.900000000000006,0)" xlink:href="#aA"/></g><g id="B"><use transform="matrix(0.05,0,0,0.05,0,0)" xlink:href="#aH"/><use transform="matrix(0.05,0,0,0.05,9,0)" xlink:href="#aF"/><use transform="matrix(0.05,0,0,0.05,19,0)" xlink:href="#aC"/><use transform="matrix(0.05,0,0,0.05,29,0)" xlink:href="#aU"/><use transform="matrix(0.05,0,0,0.05,39,0)" xlink:href="#aH"/><use transform="matrix(0.05,0,0,0.05,48,0)" xlink:href="#aW"/><use transform="matrix(0.05,0,0,0.05,58,0)" xlink:href="#aE"/><use transform="matrix(0.05,0,0,0.05,68,0)" xlink:href="#az"/></g><path d="M137-103V0h-34v-103L8-248h37l75 118 75-118h37" id="be"/><g id="C"><use transform="matrix(0.05,0,0,0.05,0,0)" xlink:href="#be"/><use transform="matrix(0.05,0,0,0.05,10.35,0)" xlink:href="#aA"/><use transform="matrix(0.05,0,0,0.05,20.35,0)" xlink:href="#aH"/></g><path d="M266 0h-40l-56-210L115 0H75L2-248h35L96-30l15-64 43-154h32l59 218 59-218h35" id="bf"/><g id="D"><use transform="matrix(0.05,0,0,0.05,0,0)" xlink:href="#bf"/><use transform="matrix(0.05,0,0,0.05,16.3,0)" xlink:href="#aC"/><use transform="matrix(0.05,0,0,0.05,26.3,0)" xlink:href="#aH"/></g><g id="E"><use transform="matrix(0.05,0,0,0.05,0,0)" xlink:href="#aI"/><use transform="matrix(0.05,0,0,0.05,3.95,0)" xlink:href="#aC"/><use transform="matrix(0.05,0,0,0.05,13.949999999999998,0)" xlink:href="#aH"/><use transform="matrix(0.05,0,0,0.05,22.95,0)" xlink:href="#az"/></g><g id="F"><use transform="matrix(0.05,0,0,0.05,0,0)" xlink:href="#aD"/><use transform="matrix(0.05,0,0,0.05,3.95,0)" xlink:href="#az"/><use transform="matrix(0.05,0,0,0.05,8.95,0)" xlink:href="#aA"/><use transform="matrix(0.05,0,0,0.05,18.95,0)" xlink:href="#aL"/><use transform="matrix(0.05,0,0,0.05,33.9,0)" xlink:href="#aV"/></g><path d="M190 0L58-211 59 0H30v-248h39L202-35l-2-213h31V0h-41" id="bg"/><g id="G"><use transform="matrix(0.05,0,0,0.05,0,0)" xlink:href="#bg"/><use transform="matrix(0.05,0,0,0.05,12.950000000000001,0)" xlink:href="#aE"/></g><g id="H"><use transform="matrix(0.05,0,0,0.05,0,0)" xlink:href="#bb"/><use transform="matrix(0.05,0,0,0.05,12,0)" xlink:href="#aC"/><use transform="matrix(0.05,0,0,0.05,22,0)" xlink:href="#aJ"/><use transform="matrix(0.05,0,0,0.05,31,0)" xlink:href="#bc"/><use transform="matrix(0.05,0,0,0.05,40,0)" xlink:href="#aX"/><use transform="matrix(0.05,0,0,0.05,50,0)" xlink:href="#aU"/></g><path d="M179-190L93 31C79 59 56 82 12 73V49c39 6 53-20 64-50L1-190h34L92-34l54-156h33" id="bh"/><g id="I"><use transform="matrix(0.05,0,0,0.05,0,0)" xlink:href="#aN"/><use transform="matrix(0.05,0,0,0.05,12.950000000000001,0)" xlink:href="#aA"/><use transform="matrix(0.05,0,0,0.05,22.950000000000003,0)" xlink:href="#aU"/><use transform="matrix(0.05,0,0,0.05,32.95,0)" xlink:href="#aI"/><use transform="matrix(0.05,0,0,0.05,36.900000000000006,0)" xlink:href="#aE"/><use transform="matrix(0.05,0,0,0.05,46.900000000000006,0)" xlink:href="#bh"/><use transform="matrix(0.05,0,0,0.05,55.900000000000006,0)" xlink:href="#aL"/><use transform="matrix(0.05,0,0,0.05,70.85000000000001,0)" xlink:href="#aA"/><use transform="matrix(0.05,0,0,0.05,80.85000000000001,0)" xlink:href="#aF"/><use transform="matrix(0.05,0,0,0.05,90.85000000000001,0)" xlink:href="#az"/><use transform="matrix(0.05,0,0,0.05,95.85000000000001,0)" xlink:href="#aH"/></g><path d="M101-234c-31-9-42 10-38 44h38v23H63V0H32v-167H5v-23h27c-7-52 17-82 69-68v24" id="bi"/><g id="J"><use transform="matrix(0.05,0,0,0.05,0,0)" xlink:href="#bi"/><use transform="matrix(0.05,0,0,0.05,5,0)" xlink:href="#aD"/><use transform="matrix(0.05,0,0,0.05,8.95,0)" xlink:href="#aI"/><use transform="matrix(0.05,0,0,0.05,12.899999999999999,0)" xlink:href="#aA"/><use transform="matrix(0.05,0,0,0.05,22.9,0)" xlink:href="#aH"/></g><g id="K"><use transform="matrix(0.05,0,0,0.05,0,0)" xlink:href="#ba"/><use transform="matrix(0.05,0,0,0.05,6.3500000000000005,0)" xlink:href="#bb"/><use transform="matrix(0.05,0,0,0.05,18.35,0)" xlink:href="#aC"/><use transform="matrix(0.05,0,0,0.05,28.35,0)" xlink:href="#aJ"/><use transform="matrix(0.05,0,0,0.05,37.35,0)" xlink:href="#bc"/><use transform="matrix(0.05,0,0,0.05,46.35,0)" xlink:href="#aX"/><use transform="matrix(0.05,0,0,0.05,56.35,0)" xlink:href="#aU"/></g><path d="M63-220v92h138v28H63V0H30v-248h175v28H63" id="bj"/><g id="L"><use transform="matrix(0.05,0,0,0.05,0,0)" xlink:href="#bj"/><use transform="matrix(0.05,0,0,0.05,10.950000000000001,0)" xlink:href="#aD"/><use transform="matrix(0.05,0,0,0.05,14.9,0)" xlink:href="#aF"/><use transform="matrix(0.05,0,0,0.05,24.900000000000002,0)" xlink:href="#aD"/><use transform="matrix(0.05,0,0,0.05,28.85,0)" xlink:href="#aH"/><use transform="matrix(0.05,0,0,0.05,37.85,0)" xlink:href="#aW"/><use transform="matrix(0.05,0,0,0.05,47.85,0)" xlink:href="#aA"/><use transform="matrix(0.05,0,0,0.05,57.85,0)" xlink:href="#aK"/><use transform="matrix(0.05,0,0,0.05,67.85,0)" xlink:href="#ba"/></g><g id="M"><use transform="matrix(0.05,0,0,0.05,0,0)" xlink:href="#az"/><use transform="matrix(0.05,0,0,0.05,5,0)" xlink:href="#aE"/></g><g id="N"><use transform="matrix(0.05,0,0,0.05,0,0)" xlink:href="#ay"/><use transform="matrix(0.05,0,0,0.05,5,0)" xlink:href="#aL"/><use transform="matrix(0.05,0,0,0.05,19.950000000000003,0)" xlink:href="#aC"/><use transform="matrix(0.05,0,0,0.05,29.950000000000003,0)" xlink:href="#aM"/><use transform="matrix(0.05,0,0,0.05,39.95,0)" xlink:href="#aA"/></g><g id="O"><use transform="matrix(0.05,0,0,0.05,0,0)" xlink:href="#aY"/><use transform="matrix(0.05,0,0,0.05,12,0)" xlink:href="#aP"/></g><g id="P"><use transform="matrix(0.05,0,0,0.05,0,0)" xlink:href="#aD"/><use transform="matrix(0.05,0,0,0.05,3.95,0)" xlink:href="#aF"/><use transform="matrix(0.05,0,0,0.05,13.949999999999998,0)" xlink:href="#aH"/><use transform="matrix(0.05,0,0,0.05,22.95,0)" xlink:href="#az"/><use transform="matrix(0.05,0,0,0.05,27.950000000000003,0)" xlink:href="#aC"/><use transform="matrix(0.05,0,0,0.05,37.95,0)" xlink:href="#aF"/><use transform="matrix(0.05,0,0,0.05,47.95,0)" xlink:href="#aJ"/><use transform="matrix(0.05,0,0,0.05,56.95,0)" xlink:href="#aA"/></g><path d="M212-179c-10-28-35-45-73-45-59 0-87 40-87 99 0 60 29 101 89 101 43 0 62-24 78-52l27 14C228-24 195 4 139 4 59 4 22-46 18-125c-6-104 99-153 187-111 19 9 31 26 39 46" id="bk"/><g id="Q"><use transform="matrix(0.05,0,0,0.05,0,0)" xlink:href="#bk"/><use transform="matrix(0.05,0,0,0.05,12.950000000000001,0)" xlink:href="#aB"/><use transform="matrix(0.05,0,0,0.05,18.900000000000002,0)" xlink:href="#aA"/><use transform="matrix(0.05,0,0,0.05,28.900000000000002,0)" xlink:href="#aC"/><use transform="matrix(0.05,0,0,0.05,38.900000000000006,0)" xlink:href="#az"/><use transform="matrix(0.05,0,0,0.05,43.900000000000006,0)" xlink:href="#aA"/></g><g id="R"><use transform="matrix(0.05,0,0,0.05,0,0)" xlink:href="#aH"/><use transform="matrix(0.05,0,0,0.05,9,0)" xlink:href="#aF"/><use transform="matrix(0.05,0,0,0.05,19,0)" xlink:href="#aC"/><use transform="matrix(0.05,0,0,0.05,29,0)" xlink:href="#aU"/><use transform="matrix(0.05,0,0,0.05,39,0)" xlink:href="#aH"/><use transform="matrix(0.05,0,0,0.05,48,0)" xlink:href="#aW"/><use transform="matrix(0.05,0,0,0.05,58,0)" xlink:href="#aE"/><use transform="matrix(0.05,0,0,0.05,68,0)" xlink:href="#az"/></g><g id="S"><use transform="matrix(0.05,0,0,0.05,0,0)" xlink:href="#aE"/><use transform="matrix(0.05,0,0,0.05,10,0)" xlink:href="#bi"/></g><g id="T"><use transform="matrix(0.05,0,0,0.05,0,0)" xlink:href="#aD"/><use transform="matrix(0.05,0,0,0.05,3.95,0)" xlink:href="#aL"/><use transform="matrix(0.05,0,0,0.05,18.900000000000002,0)" xlink:href="#aC"/><use transform="matrix(0.05,0,0,0.05,28.900000000000002,0)" xlink:href="#aM"/><use transform="matrix(0.05,0,0,0.05,38.900000000000006,0)" xlink:href="#aA"/></g><g id="U"><use transform="matrix(0.05,0,0,0.05,0,0)" xlink:href="#aG"/><use transform="matrix(0.05,0,0,0.05,9,0)" xlink:href="#aD"/><use transform="matrix(0.05,0,0,0.05,12.949999999999998,0)" xlink:href="#aC"/></g><path d="M140-251c81 0 123 46 123 126C263-46 219 4 140 4 59 4 17-45 17-125s42-126 123-126zm0 227c63 0 89-41 89-101s-29-99-89-99c-61 0-89 39-89 99S79-25 140-24" id="bl"/><path d="M115-194c53 0 69 39 70 98 0 66-23 100-70 100C84 3 66-7 56-30L54 0H23l1-261h32v101c10-23 28-34 59-34zm-8 174c40 0 45-34 45-75 0-40-5-75-45-74-42 0-51 32-51 76 0 43 10 73 51 73" id="bm"/><g id="V"><use transform="matrix(0.05,0,0,0.05,0,0)" xlink:href="#bl"/><use transform="matrix(0.05,0,0,0.05,14,0)" xlink:href="#aU"/><use transform="matrix(0.05,0,0,0.05,24,0)" xlink:href="#aA"/><use transform="matrix(0.05,0,0,0.05,34,0)" xlink:href="#aF"/><use transform="matrix(0.05,0,0,0.05,44,0)" xlink:href="#bg"/><use transform="matrix(0.05,0,0,0.05,56.95,0)" xlink:href="#aA"/><use transform="matrix(0.05,0,0,0.05,66.95,0)" xlink:href="#bm"/><use transform="matrix(0.05,0,0,0.05,76.95,0)" xlink:href="#aX"/><use transform="matrix(0.05,0,0,0.05,86.95,0)" xlink:href="#aI"/><use transform="matrix(0.05,0,0,0.05,90.9,0)" xlink:href="#aC"/></g><g id="W"><use transform="matrix(0.05,0,0,0.05,0,0)" xlink:href="#aR"/><use transform="matrix(0.05,0,0,0.05,12,0)" xlink:href="#bd"/><use transform="matrix(0.05,0,0,0.05,24,0)" xlink:href="#ay"/></g><path d="M30 0v-248h187v28H63v79h144v27H63v87h162V0H30" id="bn"/><path d="M141 0L90-78 38 0H4l68-98-65-92h35l48 74 47-74h35l-64 92 68 98h-35" id="bo"/><g id="X"><use transform="matrix(0.05,0,0,0.05,0,0)" xlink:href="#bn"/><use transform="matrix(0.05,0,0,0.05,12,0)" xlink:href="#bo"/><use transform="matrix(0.05,0,0,0.05,21,0)" xlink:href="#aU"/><use transform="matrix(0.05,0,0,0.05,31,0)" xlink:href="#aE"/><use transform="matrix(0.05,0,0,0.05,41,0)" xlink:href="#aB"/><use transform="matrix(0.05,0,0,0.05,46.95,0)" xlink:href="#az"/></g><g id="Y"><use transform="matrix(0.05,0,0,0.05,0,0)" xlink:href="#aG"/><use transform="matrix(0.05,0,0,0.05,9,0)" xlink:href="#aE"/><use transform="matrix(0.05,0,0,0.05,19,0)" xlink:href="#aI"/><use transform="matrix(0.05,0,0,0.05,22.95,0)" xlink:href="#aX"/><use transform="matrix(0.05,0,0,0.05,32.95,0)" xlink:href="#aL"/><use transform="matrix(0.05,0,0,0.05,47.900000000000006,0)" xlink:href="#aA"/></g><path d="M87 75C49 33 22-17 22-94c0-76 28-126 65-167h31c-38 41-64 92-64 168S80 34 118 75H87" id="bp"/><path d="M33-261c38 41 65 92 65 168S71 34 33 75H2C39 34 66-17 66-93S39-220 2-261h31" id="bq"/><g id="Z"><use transform="matrix(0.05,0,0,0.05,0,0)" xlink:href="#bp"/><use transform="matrix(0.05,0,0,0.05,5.95,0)" xlink:href="#aH"/><use transform="matrix(0.05,0,0,0.05,14.949999999999998,0)" xlink:href="#aF"/><use transform="matrix(0.05,0,0,0.05,24.95,0)" xlink:href="#aC"/><use transform="matrix(0.05,0,0,0.05,34.95,0)" xlink:href="#aU"/><use transform="matrix(0.05,0,0,0.05,44.95,0)" xlink:href="#aH"/><use transform="matrix(0.05,0,0,0.05,53.95,0)" xlink:href="#aW"/><use transform="matrix(0.05,0,0,0.05,63.95,0)" xlink:href="#aE"/><use transform="matrix(0.05,0,0,0.05,73.95,0)" xlink:href="#az"/><use transform="matrix(0.05,0,0,0.05,78.95,0)" xlink:href="#bq"/></g><g id="aa"><use transform="matrix(0.05,0,0,0.05,0,0)" xlink:href="#bm"/><use transform="matrix(0.05,0,0,0.05,10,0)" xlink:href="#aC"/><use transform="matrix(0.05,0,0,0.05,20,0)" xlink:href="#aJ"/><use transform="matrix(0.05,0,0,0.05,29,0)" xlink:href="#bc"/><use transform="matrix(0.05,0,0,0.05,38,0)" xlink:href="#aX"/><use transform="matrix(0.05,0,0,0.05,48,0)" xlink:href="#aU"/></g><g id="ab"><use transform="matrix(0.05,0,0,0.05,0,0)" xlink:href="#aH"/><use transform="matrix(0.05,0,0,0.05,9,0)" xlink:href="#aA"/><use transform="matrix(0.05,0,0,0.05,19,0)" xlink:href="#aB"/><use transform="matrix(0.05,0,0,0.05,24.95,0)" xlink:href="#aG"/><use transform="matrix(0.05,0,0,0.05,33.95,0)" xlink:href="#aA"/><use transform="matrix(0.05,0,0,0.05,43.95,0)" xlink:href="#aB"/></g><g id="ac"><use transform="matrix(0.05,0,0,0.05,0,0)" xlink:href="#aN"/><use transform="matrix(0.05,0,0,0.05,12.950000000000001,0)" xlink:href="#aD"/><use transform="matrix(0.05,0,0,0.05,16.900000000000002,0)" xlink:href="#aH"/><use transform="matrix(0.05,0,0,0.05,25.900000000000002,0)" xlink:href="#aJ"/><use transform="matrix(0.05,0,0,0.05,34.900000000000006,0)" xlink:href="#aE"/><use transform="matrix(0.05,0,0,0.05,44.900000000000006,0)" xlink:href="#aG"/><use transform="matrix(0.05,0,0,0.05,53.900000000000006,0)" xlink:href="#aA"/><use transform="matrix(0.05,0,0,0.05,63.900000000000006,0)" xlink:href="#aB"/></g><g id="ad"><use transform="matrix(0.05,0,0,0.05,0,0)" xlink:href="#aE"/><use transform="matrix(0.05,0,0,0.05,10,0)" xlink:href="#aF"/></g><g id="ae"><use transform="matrix(0.05,0,0,0.05,0,0)" xlink:href="#bb"/><use transform="matrix(0.05,0,0,0.05,12,0)" xlink:href="#aC"/><use transform="matrix(0.05,0,0,0.05,22,0)" xlink:href="#aJ"/><use transform="matrix(0.05,0,0,0.05,31,0)" xlink:href="#bc"/><use transform="matrix(0.05,0,0,0.05,40,0)" xlink:href="#aX"/><use transform="matrix(0.05,0,0,0.05,50,0)" xlink:href="#aU"/></g><g id="af"><use transform="matrix(0.05,0,0,0.05,0,0)" xlink:href="#aX"/><use transform="matrix(0.05,0,0,0.05,10,0)" xlink:href="#aH"/><use transform="matrix(0.05,0,0,0.05,19,0)" xlink:href="#aD"/><use transform="matrix(0.05,0,0,0.05,22.95,0)" xlink:href="#aF"/><use transform="matrix(0.05,0,0,0.05,32.95,0)" xlink:href="#aM"/></g><g id="ag"><use transform="matrix(0.05,0,0,0.05,0,0)" xlink:href="#aN"/><use transform="matrix(0.05,0,0,0.05,12.950000000000001,0)" xlink:href="#aN"/></g><g id="ah"><use transform="matrix(0.05,0,0,0.05,0,0)" xlink:href="#aE"/><use transform="matrix(0.05,0,0,0.05,10,0)" xlink:href="#aB"/></g><g id="ai"><use transform="matrix(0.05,0,0,0.05,0,0)" xlink:href="#aE"/><use transform="matrix(0.05,0,0,0.05,10,0)" xlink:href="#az"/><use transform="matrix(0.05,0,0,0.05,15,0)" xlink:href="#aW"/><use transform="matrix(0.05,0,0,0.05,25,0)" xlink:href="#aA"/><use transform="matrix(0.05,0,0,0.05,35,0)" xlink:href="#aB"/></g><path d="M68-38c1 34 0 65-14 84H32c9-13 17-26 17-46H33v-38h35" id="br"/><g id="aj"><use transform="matrix(0.05,0,0,0.05,0,0)" xlink:href="#az"/><use transform="matrix(0.05,0,0,0.05,5,0)" xlink:href="#aE"/><use transform="matrix(0.05,0,0,0.05,15,0)" xlink:href="#aE"/><use transform="matrix(0.05,0,0,0.05,25,0)" xlink:href="#aI"/><use transform="matrix(0.05,0,0,0.05,28.950000000000003,0)" xlink:href="#br"/></g><g id="ak"><use transform="matrix(0.05,0,0,0.05,0,0)" xlink:href="#bi"/><use transform="matrix(0.05,0,0,0.05,5,0)" xlink:href="#aE"/><use transform="matrix(0.05,0,0,0.05,15,0)" xlink:href="#aB"/></g><path d="M33 0v-38h34V0H33" id="bs"/><g id="al"><use transform="matrix(0.05,0,0,0.05,0,0)" xlink:href="#aA"/><use transform="matrix(0.05,0,0,0.05,10,0)" xlink:href="#bo"/><use transform="matrix(0.05,0,0,0.05,19,0)" xlink:href="#bs"/></g><g id="am"><use transform="matrix(0.05,0,0,0.05,0,0)" xlink:href="#bb"/><use transform="matrix(0.05,0,0,0.05,12,0)" xlink:href="#aE"/><use transform="matrix(0.05,0,0,0.05,22,0)" xlink:href="#aB"/><use transform="matrix(0.05,0,0,0.05,27.950000000000003,0)" xlink:href="#aM"/><use transform="matrix(0.05,0,0,0.05,37.95,0)" xlink:href="#bb"/><use transform="matrix(0.05,0,0,0.05,49.95,0)" xlink:href="#aC"/><use transform="matrix(0.05,0,0,0.05,59.95,0)" xlink:href="#aJ"/><use transform="matrix(0.05,0,0,0.05,68.95,0)" xlink:href="#bc"/><use transform="matrix(0.05,0,0,0.05,77.95,0)" xlink:href="#aX"/><use transform="matrix(0.05,0,0,0.05,87.95,0)" xlink:href="#aU"/></g><g id="an"><use transform="matrix(0.05,0,0,0.05,0,0)" xlink:href="#bj"/><use transform="matrix(0.05,0,0,0.05,10.950000000000001,0)" xlink:href="#aI"/><use transform="matrix(0.05,0,0,0.05,14.9,0)" xlink:href="#aX"/><use transform="matrix(0.05,0,0,0.05,24.900000000000002,0)" xlink:href="#aH"/><use transform="matrix(0.05,0,0,0.05,33.900000000000006,0)" xlink:href="#aW"/></g><g id="ao"><use transform="matrix(0.05,0,0,0.05,0,0)" xlink:href="#bp"/><use transform="matrix(0.05,0,0,0.05,5.95,0)" xlink:href="#aH"/><use transform="matrix(0.05,0,0,0.05,14.949999999999998,0)" xlink:href="#aF"/><use transform="matrix(0.05,0,0,0.05,24.95,0)" xlink:href="#aC"/><use transform="matrix(0.05,0,0,0.05,34.95,0)" xlink:href="#aU"/><use transform="matrix(0.05,0,0,0.05,44.95,0)" xlink:href="#aH"/><use transform="matrix(0.05,0,0,0.05,53.95,0)" xlink:href="#aW"/><use transform="matrix(0.05,0,0,0.05,63.95,0)" xlink:href="#aE"/><use transform="matrix(0.05,0,0,0.05,73.95,0)" xlink:href="#az"/><use transform="matrix(0.05,0,0,0.05,78.95,0)" xlink:href="#bq"/></g><g id="ap"><use transform="matrix(0.05,0,0,0.05,0,0)" xlink:href="#bi"/><use transform="matrix(0.05,0,0,0.05,5,0)" xlink:href="#aB"/><use transform="matrix(0.05,0,0,0.05,10.95,0)" xlink:href="#aE"/><use transform="matrix(0.05,0,0,0.05,20.95,0)" xlink:href="#aL"/></g><path d="M232-93c-1 65-40 97-104 97C67 4 28-28 28-90v-158h33c8 89-33 224 67 224 102 0 64-133 71-224h33v155" id="bt"/><g id="aq"><use transform="matrix(0.05,0,0,0.05,0,0)" xlink:href="#bt"/><use transform="matrix(0.05,0,0,0.05,12.950000000000001,0)" xlink:href="#aF"/><use transform="matrix(0.05,0,0,0.05,22.950000000000003,0)" xlink:href="#aA"/><use transform="matrix(0.05,0,0,0.05,32.95,0)" xlink:href="#bo"/><use transform="matrix(0.05,0,0,0.05,41.95,0)" xlink:href="#aU"/><use transform="matrix(0.05,0,0,0.05,51.95,0)" xlink:href="#aE"/><use transform="matrix(0.05,0,0,0.05,61.95,0)" xlink:href="#aB"/><use transform="matrix(0.05,0,0,0.05,67.9,0)" xlink:href="#az"/></g><g id="ar"><use transform="matrix(0.05,0,0,0.05,0,0)" xlink:href="#aY"/><use transform="matrix(0.05,0,0,0.05,12,0)" xlink:href="#aP"/></g><g id="as"><use transform="matrix(0.05,0,0,0.05,0,0)" xlink:href="#aO"/><use transform="matrix(0.05,0,0,0.05,8.950000000000001,0)" xlink:href="#aA"/><use transform="matrix(0.05,0,0,0.05,18.950000000000003,0)" xlink:href="#aB"/><use transform="matrix(0.05,0,0,0.05,24.900000000000002,0)" xlink:href="#aL"/><use transform="matrix(0.05,0,0,0.05,39.85,0)" xlink:href="#aD"/><use transform="matrix(0.05,0,0,0.05,43.800000000000004,0)" xlink:href="#aF"/><use transform="matrix(0.05,0,0,0.05,53.800000000000004,0)" xlink:href="#aC"/><use transform="matrix(0.05,0,0,0.05,63.800000000000004,0)" xlink:href="#az"/><use transform="matrix(0.05,0,0,0.05,68.80000000000001,0)" xlink:href="#aA"/></g><path d="M30 0v-248h33v221h125V0H30" id="bu"/><g id="at"><use transform="matrix(0.05,0,0,0.05,0,0)" xlink:href="#bu"/><use transform="matrix(0.05,0,0,0.05,10,0)" xlink:href="#aE"/><use transform="matrix(0.05,0,0,0.05,20,0)" xlink:href="#aJ"/><use transform="matrix(0.05,0,0,0.05,29,0)" xlink:href="#bc"/></g><g id="au"><use transform="matrix(0.05,0,0,0.05,0,0)" xlink:href="#ay"/><use transform="matrix(0.05,0,0,0.05,5,0)" xlink:href="#aL"/><use transform="matrix(0.05,0,0,0.05,19.950000000000003,0)" xlink:href="#aC"/><use transform="matrix(0.05,0,0,0.05,29.950000000000003,0)" xlink:href="#aM"/><use transform="matrix(0.05,0,0,0.05,39.95,0)" xlink:href="#aA"/></g><g id="av"><use transform="matrix(0.05,0,0,0.05,0,0)" xlink:href="#bt"/><use transform="matrix(0.05,0,0,0.05,12.950000000000001,0)" xlink:href="#aF"/><use transform="matrix(0.05,0,0,0.05,22.950000000000003,0)" xlink:href="#aI"/><use transform="matrix(0.05,0,0,0.05,26.900000000000002,0)" xlink:href="#aE"/><use transform="matrix(0.05,0,0,0.05,36.900000000000006,0)" xlink:href="#aJ"/><use transform="matrix(0.05,0,0,0.05,45.900000000000006,0)" xlink:href="#bc"/></g><g id="aw"><use transform="matrix(0.05,0,0,0.05,0,0)" xlink:href="#bg"/><use transform="matrix(0.05,0,0,0.05,12.950000000000001,0)" xlink:href="#aE"/></g><g id="ax"><use transform="matrix(0.05,0,0,0.05,0,0)" xlink:href="#be"/><use transform="matrix(0.05,0,0,0.05,10.35,0)" xlink:href="#aA"/><use transform="matrix(0.05,0,0,0.05,20.35,0)" xlink:href="#aH"/></g></defs></g></svg>